<svg width="19" height="20" fill="none" xmlns="http://www.w3.org/2000/svg"><path fill-rule="evenodd" clip-rule="evenodd" d="M0 8a8 8 0 0115.95-.88L18.423 11 16 12.021V17h-4v3H3v-2.76c0-2.382-.735-3.443-1.478-4.516C.765 11.631 0 10.527 0 8zm11 0a3.001 3.001 0 00-5.941-.6A2.991 2.991 0 007 10.816V12.5a.5.5 0 00.5.5h1a.5.5 0 00.5-.5v-1.684A2.99 2.99 0 0011 8zM3.5 6a.5.5 0 110 1 .5.5 0 010-1zm9.5.5a.5.5 0 10-1 0 .5.5 0 001 0zM3.5 9a.5.5 0 110 1 .5.5 0 010-1zm9.5.5a.5.5 0 10-1 0 .5.5 0 001 0z" fill="#03DAC4"/></svg>