<svg width="0" height="0" style="position:absolute"><symbol fill="none" viewBox="0 0 24 24" id="svg-icons-arrow" xmlns="http://www.w3.org/2000/svg"><mask id="aa" maskUnits="userSpaceOnUse" x="8" y="6" width="8" height="13"><path d="M8.59 17.34l4.58-4.59-4.58-4.59L10 6.75l6 6-6 6-1.41-1.41z" fill="#fff"/></mask><g mask="url(#aa)"><path fill="#fff" fill-opacity=".54" d="M0 0h24v24H0z"/></g></symbol><symbol fill="none" viewBox="0 0 25 24" id="svg-icons-arrow-dark" xmlns="http://www.w3.org/2000/svg"><mask id="ba" maskUnits="userSpaceOnUse" x="9" y="6" width="8" height="13"><path d="M9.09 17.34l4.58-4.59-4.58-4.59 1.41-1.41 6 6-6 6-1.41-1.41z" fill="#fff"/></mask><g mask="url(#ba)"><path fill="#000" fill-opacity=".54" d="M.5 0h24v24H.5z"/></g></symbol><symbol fill="none" viewBox="0 0 19 20" id="svg-icons-bath" xmlns="http://www.w3.org/2000/svg"><path fill-rule="evenodd" clip-rule="evenodd" d="M0 8a8 8 0 0115.95-.88L18.423 11 16 12.021V17h-4v3H3v-2.76c0-2.382-.735-3.443-1.478-4.516C.765 11.631 0 10.527 0 8zm11 0a3.001 3.001 0 00-5.941-.6A2.991 2.991 0 007 10.816V12.5a.5.5 0 00.5.5h1a.5.5 0 00.5-.5v-1.684A2.99 2.99 0 0011 8zM3.5 6a.5.5 0 110 1 .5.5 0 010-1zm9.5.5a.5.5 0 10-1 0 .5.5 0 001 0zM3.5 9a.5.5 0 110 1 .5.5 0 010-1zm9.5.5a.5.5 0 10-1 0 .5.5 0 001 0z" fill="#03DAC4"/></symbol><symbol fill="none" viewBox="0 0 20 19" id="svg-icons-bedroom" xmlns="http://www.w3.org/2000/svg"><path d="M14.5 0C11.605 0 10 2.09 10 2.09S8.395 0 5.5 0A5.5 5.5 0 000 5.5C0 6.003.075 6.505.203 7h3.464l2.579-1.934 2 3L9.667 7h1.611c.346-.595.984-1 1.722-1a2 2 0 110 4 1.994 1.994 0 01-1.723-1h-.944l-2.579 1.934-2-3L4.333 9h-3.31c1.514 2.764 4.282 5.08 5.257 5.99C7.858 16.46 10 18.35 10 18.35s2.142-1.89 3.719-3.36C15.088 13.713 20 9.671 20 5.5A5.5 5.5 0 0014.5 0z" fill="#03DAC4"/></symbol><symbol fill="none" viewBox="0 0 14 20" id="svg-icons-geo" xmlns="http://www.w3.org/2000/svg"><path fill-rule="evenodd" clip-rule="evenodd" d="M0 7a7 7 0 1114 0c0 5-7 13-7 13S0 12 0 7zm4.5 0a2.5 2.5 0 105 0 2.5 2.5 0 00-5 0z" fill="#000" fill-opacity=".38"/></symbol><symbol fill="none" viewBox="0 0 21 20" id="svg-icons-kitchen" xmlns="http://www.w3.org/2000/svg"><path d="M6.182.574l-.807.645C5.156 1.395 0 5.582 0 11c0 2.888 1.35 4.457 2.418 5.248-.22.359-.423.714-.594 1.055C1.316 18.32 1 19.167 1 20h2c0-.167.184-.945.613-1.803a13.586 13.586 0 011.889-2.789c1.418-1.62 3.31-2.998 5.498-3.33l.066-.01A6.65 6.65 0 0112 12v2c-2.788 0-4.99 2.319-6.225 4.5 1.171.254 2.699.5 4.225.5 5.535 0 7.818-3.424 9.832-6.445l.455-.682-.58-.58C19.572 11.158 16.364 8 12 8c-2.77 0-4.758 1.437-6.154 3.145C5.936 10.125 6 9.073 6 8H4c0 2.377-.292 4.78-.656 6.414C2.709 13.838 2 12.806 2 11c0-3.277 2.484-6.167 3.813-7.477.511.834 1.23 2.157 1.703 3.645a9.118 9.118 0 011.845-.785c-.906-2.744-2.468-4.86-2.56-4.983L6.18.574z" fill="#03DAC4"/></symbol><symbol fill="none" viewBox="0 0 20 16" id="svg-icons-mail" xmlns="http://www.w3.org/2000/svg"><path fill-rule="evenodd" clip-rule="evenodd" d="M2 0a2 2 0 00-2 2v12a2 2 0 002 2h16a2 2 0 002-2V2a2 2 0 00-2-2H2zm0 2h16v1.002L10 8 2 3.002V2zm8 8L2 5.002V14h16V5.002L10 10z" fill="#000" fill-opacity=".38"/></symbol><symbol fill="none" viewBox="0 0 18 18" id="svg-icons-phone" xmlns="http://www.w3.org/2000/svg"><path d="M12.75 11.85l-2.54 2.53a15.376 15.376 0 01-3.798-2.792A15.376 15.376 0 013.62 7.79l2.53-2.54L5.512 0H0v1c0 4.539 1.84 8.874 4.966 12.034C8.126 16.16 12.461 18 17 18h1v-5.512l-5.25-.638z" fill="#000" fill-opacity=".38"/></symbol><symbol fill="none" viewBox="0 0 19 20" id="svg-icons-tech_room" xmlns="http://www.w3.org/2000/svg"><path fill-rule="evenodd" clip-rule="evenodd" d="M18.174 6.259c1.387-3.09.774-4.663.001-5.435-1.221-1.221-3.43-1.068-6.238.398-2.899-.635-6.052.164-8.302 2.413-2.25 2.25-3.049 5.403-2.414 8.302-1.464 2.807-1.617 5.019-.398 6.238.438.439 1.135.83 2.222.83.825 0 1.88-.232 3.214-.831 1.185.54 2.461.82 3.74.82a8.974 8.974 0 006.364-2.631c2.73-2.728 3.326-6.783 1.811-10.104zM5.05 5.05A6.98 6.98 0 0110 3.004c1.793 0 3.586.682 4.95 2.046.383.383.707.803.982 1.245-.941 1.757-2.404 3.663-4.189 5.449-1.785 1.786-3.691 3.248-5.449 4.19a7.046 7.046 0 01-1.245-.982c-2.728-2.731-2.728-7.173.001-9.902zm3.584 11.812a7.004 7.004 0 006.316-1.912 7 7 0 001.912-6.316c-.98 1.51-2.241 3.06-3.705 4.523-1.463 1.464-3.013 2.726-4.523 3.705z" fill="#03DAC4"/></symbol><symbol fill="none" viewBox="0 0 20 20" id="svg-icons-telegram" xmlns="http://www.w3.org/2000/svg"><path d="M20 0L0 7.271l5.438 5.44L16 4 7.29 14.563 12.728 20 20 0z" fill="#03DAC4"/></symbol><symbol fill="none" viewBox="0 0 18 18" id="svg-socials-facebook" xmlns="http://www.w3.org/2000/svg"><path d="M18 0H0v18h9.621v-6.961H7.278V8.314h2.343V6.309c0-2.324 1.421-3.591 3.495-3.591.699-.002 1.397.034 2.092.105v2.43H13.78c-1.13 0-1.35.534-1.35 1.322V8.31h2.7l-.351 2.725h-2.365V18H18V0z" fill="#000"/></symbol><symbol fill="none" viewBox="0 0 18 18" id="svg-socials-instagram" xmlns="http://www.w3.org/2000/svg"><path fill-rule="evenodd" clip-rule="evenodd" d="M0 18V0h18v18H0zM16 3a1 1 0 10-2 0 1 1 0 002 0zM9 4a5 5 0 11-.001 10.001A5 5 0 019 4zM6 9a3 3 0 116 0 3 3 0 01-6 0z" fill="#000"/></symbol><symbol fill="none" viewBox="0 0 18 18" id="svg-socials-twitter" xmlns="http://www.w3.org/2000/svg"><path fill-rule="evenodd" clip-rule="evenodd" d="M0 0h18v18H0V0zm14.05 6.857v-.343a5.789 5.789 0 001.202-1.287c-.514.258-.943.343-1.457.429.514-.342.943-.771 1.114-1.371-.429.257-.943.514-1.543.6-.429-.514-1.114-.771-1.8-.771A2.488 2.488 0 009.08 6.6c0 .142.026.257.05.361.019.085.036.162.036.239-2.057-.085-3.857-1.114-5.057-2.571-.257.343-.343.771-.343 1.2 0 .857.428 1.543 1.114 2.143-.428-.086-.771-.172-1.114-.343 0 1.2.857 2.143 1.971 2.4-.257.086-.429.086-.686.086-.036 0-.086-.015-.145-.032a1.027 1.027 0 00-.284-.054c.343.943 1.2 1.714 2.314 1.714-.857.6-1.972 1.029-3.086 1.029h-.6c1.114.685 2.4 1.114 3.771 1.114 4.543 0 7.029-3.772 7.029-7.029z" fill="#03DAC4"/></symbol></svg>