<svg width="21" height="20" fill="none" xmlns="http://www.w3.org/2000/svg"><path d="M6.182.574l-.807.645C5.156 1.395 0 5.582 0 11c0 2.888 1.35 4.457 2.418 5.248-.22.359-.423.714-.594 1.055C1.316 18.32 1 19.167 1 20h2c0-.167.184-.945.613-1.803a13.586 13.586 0 011.889-2.789c1.418-1.62 3.31-2.998 5.498-3.33l.066-.01A6.65 6.65 0 0112 12v2c-2.788 0-4.99 2.319-6.225 4.5 1.171.254 2.699.5 4.225.5 5.535 0 7.818-3.424 9.832-6.445l.455-.682-.58-.58C19.572 11.158 16.364 8 12 8c-2.77 0-4.758 1.437-6.154 3.145C5.936 10.125 6 9.073 6 8H4c0 2.377-.292 4.78-.656 6.414C2.709 13.838 2 12.806 2 11c0-3.277 2.484-6.167 3.813-7.477.511.834 1.23 2.157 1.703 3.645a9.118 9.118 0 011.845-.785c-.906-2.744-2.468-4.86-2.56-4.983L6.18.574z" fill="#03DAC4"/></svg>