<svg width="19" height="20" fill="none" xmlns="http://www.w3.org/2000/svg"><path fill-rule="evenodd" clip-rule="evenodd" d="M18.174 6.259c1.387-3.09.774-4.663.001-5.435-1.221-1.221-3.43-1.068-6.238.398-2.899-.635-6.052.164-8.302 2.413-2.25 2.25-3.049 5.403-2.414 8.302-1.464 2.807-1.617 5.019-.398 6.238.438.439 1.135.83 2.222.83.825 0 1.88-.232 3.214-.831 1.185.54 2.461.82 3.74.82a8.974 8.974 0 006.364-2.631c2.73-2.728 3.326-6.783 1.811-10.104zM5.05 5.05A6.98 6.98 0 0110 3.004c1.793 0 3.586.682 4.95 2.046.383.383.707.803.982 1.245-.941 1.757-2.404 3.663-4.189 5.449-1.785 1.786-3.691 3.248-5.449 4.19a7.046 7.046 0 01-1.245-.982c-2.728-2.731-2.728-7.173.001-9.902zm3.584 11.812a7.004 7.004 0 006.316-1.912 7 7 0 001.912-6.316c-.98 1.51-2.241 3.06-3.705 4.523-1.463 1.464-3.013 2.726-4.523 3.705z" fill="#03DAC4"/></svg>